<?xml version="1.0" encoding="UTF-8"?>
<svg version="1.1" xmlns="http://www.w3.org/2000/svg" width="379" height="379">
<path d="M0 0 C3.03951519 2.72145497 5.99917441 5.52193374 8.9453125 8.34375 C9.44949707 8.82070313 9.95368164 9.29765625 10.47314453 9.7890625 C22.85055651 21.54190815 32.30741516 34.65859987 40.9453125 49.34375 C41.30367188 49.94912598 41.66203125 50.55450195 42.03125 51.17822266 C65.95110713 92.12748935 71.29969414 143.32609364 59.6953125 188.96875 C47.28319594 234.63812148 19.54419608 273.40428679 -20.0546875 299.34375 C-20.7245166 299.78460938 -21.3943457 300.22546875 -22.08447266 300.6796875 C-40.62753241 312.69285996 -61.51933787 320.6479815 -83.0546875 325.34375 C-84.25931641 325.60841064 -84.25931641 325.60841064 -85.48828125 325.87841797 C-117.83167256 332.57679273 -153.08805475 329.15187535 -184.0546875 318.34375 C-185.03042725 318.00802979 -185.03042725 318.00802979 -186.02587891 317.66552734 C-203.30552464 311.59430047 -219.61435618 302.56045644 -234.0546875 291.34375 C-235.35019531 290.36341797 -235.35019531 290.36341797 -236.671875 289.36328125 C-241.56001957 285.57614049 -246.17722322 281.50985925 -250.7421875 277.34375 C-251.26498291 276.86953613 -251.78777832 276.39532227 -252.32641602 275.90673828 C-286.25397089 244.4814673 -306.07928782 197.44128307 -308.18017578 151.60595703 C-309.93983518 99.39093824 -292.01707346 50.92512592 -256.484375 12.65234375 C-196.04900503 -51.504416 -98.10235015 -61.3219581 0 0 Z " fill="#22586A" transform="translate(311.0546875,45.65625)"/>
<path d="M0 0 C3.03951519 2.72145497 5.99917441 5.52193374 8.9453125 8.34375 C9.44949707 8.82070313 9.95368164 9.29765625 10.47314453 9.7890625 C22.85055651 21.54190815 32.30741516 34.65859987 40.9453125 49.34375 C41.30367188 49.94912598 41.66203125 50.55450195 42.03125 51.17822266 C65.95110713 92.12748935 71.29969414 143.32609364 59.6953125 188.96875 C47.28319594 234.63812148 19.54419608 273.40428679 -20.0546875 299.34375 C-20.7245166 299.78460938 -21.3943457 300.22546875 -22.08447266 300.6796875 C-40.62753241 312.69285996 -61.51933787 320.6479815 -83.0546875 325.34375 C-84.25931641 325.60841064 -84.25931641 325.60841064 -85.48828125 325.87841797 C-117.83167256 332.57679273 -153.08805475 329.15187535 -184.0546875 318.34375 C-185.03042725 318.00802979 -185.03042725 318.00802979 -186.02587891 317.66552734 C-203.30552464 311.59430047 -219.61435618 302.56045644 -234.0546875 291.34375 C-235.35019531 290.36341797 -235.35019531 290.36341797 -236.671875 289.36328125 C-241.56001957 285.57614049 -246.17722322 281.50985925 -250.7421875 277.34375 C-251.26498291 276.86953613 -251.78777832 276.39532227 -252.32641602 275.90673828 C-286.25397089 244.4814673 -306.07928782 197.44128307 -308.18017578 151.60595703 C-309.93983518 99.39093824 -292.01707346 50.92512592 -256.484375 12.65234375 C-196.04900503 -51.504416 -98.10235015 -61.3219581 0 0 Z M-167.0546875 -25.65625 C-167.85874023 -25.43694824 -168.66279297 -25.21764648 -169.49121094 -24.99169922 C-198.48889099 -16.90312779 -223.53033322 -0.3255272 -245.0546875 20.34375 C-245.6101123 20.87436035 -246.16553711 21.4049707 -246.73779297 21.95166016 C-274.95012858 49.43242072 -293.84038321 91.67666669 -294.5859375 131.0625 C-294.60590924 133.75773629 -294.60154753 136.45080838 -294.57617188 139.14599609 C-294.55468282 141.84433737 -294.57615789 144.54001807 -294.6015625 147.23828125 C-294.63032022 164.17964376 -291.93387876 180.58386119 -286.3046875 196.59375 C-285.78817627 198.09421875 -285.78817627 198.09421875 -285.26123047 199.625 C-275.23892971 228.06481662 -257.74464234 255.30717915 -234.0546875 274.34375 C-233.1471875 275.08882813 -232.2396875 275.83390625 -231.3046875 276.6015625 C-193.75320747 306.54886782 -148.22807321 319.63632578 -100.56176758 314.47070312 C-54.88501812 308.86146896 -12.787476 285.1904724 15.6953125 248.87890625 C22.34401895 240.18648795 27.93091859 231.06261873 32.9453125 221.34375 C33.26483887 220.72532227 33.58436523 220.10689453 33.91357422 219.46972656 C40.80141238 205.92448498 45.9402267 191.2439671 48.9453125 176.34375 C49.08066406 175.68874512 49.21601563 175.03374023 49.35546875 174.35888672 C57.00567372 135.97863543 50.48676521 97.03615113 32.9453125 62.34375 C32.61950195 61.69760742 32.29369141 61.05146484 31.95800781 60.38574219 C24.74706853 46.37484979 14.83877369 33.67587405 3.9453125 22.34375 C3.50251953 21.87517578 3.05972656 21.40660156 2.60351562 20.92382812 C-25.91717672 -9.16178561 -67.59294018 -29.51210899 -109.26765442 -31.06930542 C-113.38504417 -31.16422349 -117.49889674 -31.178345 -121.6171875 -31.15625 C-122.4849884 -31.15481995 -123.35278931 -31.15338989 -124.24688721 -31.1519165 C-138.97821068 -31.09212782 -152.83106062 -29.70276643 -167.0546875 -25.65625 Z " fill="#F8FDD1" transform="translate(311.0546875,45.65625)"/>
<path d="M0 0 C2.52557477 0.24441046 3.7852602 0.82360659 5.75 2.4375 C7 4 7 4 7 6 C8.3303125 4.9790625 8.3303125 4.9790625 9.6875 3.9375 C13 2 13 2 15.875 2.25 C16.57625 2.4975 17.2775 2.745 18 3 C18.75 5.25 18.75 5.25 19 8 C17.68733482 9.35368596 16.35432675 10.68799596 15 12 C15.14389291 16.2688231 18.38087242 19.09295341 21.0625 22.125 C26 27.74283765 26 27.74283765 26 30 C26.66 30 27.32 30 28 30 C27.979375 28.700625 27.95875 27.40125 27.9375 26.0625 C27.92995028 21.30617675 28.40112883 16.71611047 29 12 C32.63 12.33 36.26 12.66 40 13 C40.14084644 17.81306297 40.06222515 22.18646495 39.10546875 26.91015625 C36.98865007 37.52869188 36.98865007 37.52869188 40.375 47.4296875 C43.06571762 50.9116211 46.09202925 54.04547015 49.20605469 57.14892578 C51.99745749 60.02922192 54.38901647 63.18506376 56.8125 66.375 C59.31254969 69.60241922 61.82850056 72.79665066 64.4609375 75.91796875 C65.56308594 77.22701172 65.56308594 77.22701172 66.6875 78.5625 C67.65236328 79.67818359 67.65236328 79.67818359 68.63671875 80.81640625 C70.28462947 83.45589649 70.43263888 84.94098864 70 88 C69.34 88.66 68.68 89.32 68 90 C65.05930483 89.81212555 63.47374043 89.4209185 61.25488281 87.44946289 C60.4867627 86.4709436 60.4867627 86.4709436 59.703125 85.47265625 C59.13722656 84.76302734 58.57132813 84.05339844 57.98828125 83.32226562 C57.41464844 82.57654297 56.84101563 81.83082031 56.25 81.0625 C55.66089844 80.32064453 55.07179688 79.57878906 54.46484375 78.81445312 C50.21012804 73.42025608 50.21012804 73.42025608 49 71 C47.515 70.505 47.515 70.505 46 70 C46.061875 70.78375 46.12375 71.5675 46.1875 72.375 C46.125625 73.24125 46.06375 74.1075 46 75 C42.01261366 77.65825756 39.0549589 76.93043684 34.5 76.4375 C33.11590942 76.30021484 33.11590942 76.30021484 31.70385742 76.16015625 C19.07069273 74.86717614 6.45817678 73.34854244 -6.15234375 71.85327148 C-7.04104156 71.74812729 -7.92973938 71.64298309 -8.84536743 71.53465271 C-10.61206773 71.32533843 -12.37865101 71.11503379 -14.14511108 70.90370178 C-18.59001253 70.37747299 -23.03461645 69.89058296 -27.49072266 69.46875 C-28.36791458 69.38403442 -29.24510651 69.29931885 -30.14888 69.21203613 C-31.81628011 69.05346251 -33.48440663 68.90229862 -35.15324402 68.75964355 C-40.77851092 68.22148908 -40.77851092 68.22148908 -43 66 C-43.1875 63.4375 -43.1875 63.4375 -43 61 C-42 60 -42 60 -38.18359375 59.90234375 C-36.60153318 59.90901911 -35.01948841 59.92098125 -33.4375 59.9375 C-32.63119141 59.94201172 -31.82488281 59.94652344 -30.99414062 59.95117188 C-28.99606244 59.96299482 -26.99802217 59.98093086 -25 60 C-25.928125 59.566875 -25.928125 59.566875 -26.875 59.125 C-29 58 -29 58 -31 56 C-31.1875 53.4375 -31.1875 53.4375 -31 51 C-30 50 -30 50 -27.85546875 49.8671875 C-26.97503906 49.86976562 -26.09460938 49.87234375 -25.1875 49.875 C-24.31480469 49.87242188 -23.44210938 49.86984375 -22.54296875 49.8671875 C-20.21345785 49.98885166 -18.23061985 50.34485291 -16 51 C-16 50.34 -16 49.68 -16 49 C-16.99 48.34 -17.98 47.68 -19 47 C-19.5 44.75 -19.5 44.75 -19 42 C-17.49710537 39.78218674 -15.83573591 37.9734161 -14 36 C-19.32163728 39.93204995 -24.51221105 43.98837407 -29.625 48.1875 C-35.3793568 52.89027524 -41.16980696 57.53868252 -47.04345703 62.09179688 C-49.7897225 64.22804487 -52.48486421 66.39422425 -55.10546875 68.68359375 C-56.06066406 69.50988281 -57.01585937 70.33617187 -58 71.1875 C-58.825 71.92355469 -59.65 72.65960938 -60.5 73.41796875 C-63.56263313 75.35604128 -65.4390466 75.38947928 -69 75 C-70 74 -70 74 -70.2890625 71.6640625 C-69.91724554 68.23731704 -69.00317722 67.54444083 -66.375 65.375 C-65.54871094 64.68535156 -64.72242187 63.99570313 -63.87109375 63.28515625 C-59.5326944 59.83214452 -55.18480156 56.39328924 -50.80859375 52.98828125 C-46.82734255 49.88028349 -42.91144643 46.69512653 -39 43.5 C-34.03782922 39.44998859 -29.04832842 35.44211237 -24 31.5 C-18.70719184 27.36470597 -13.46553978 23.16985903 -8.25 18.9375 C-7.55777344 18.37675781 -6.86554688 17.81601563 -6.15234375 17.23828125 C-5.50910156 16.71492188 -4.86585938 16.1915625 -4.203125 15.65234375 C-3.63239258 15.18820068 -3.06166016 14.72405762 -2.47363281 14.24584961 C-0.86742445 12.92306943 -0.86742445 12.92306943 1 11 C0.319375 10.2575 -0.36125 9.515 -1.0625 8.75 C-3 6 -3 6 -2.875 3.8125 C-2 2 -2 2 0 0 Z " fill="#2C5F6E" transform="translate(192,67)"/>
<path d="M0 0 C2.52557477 0.24441046 3.7852602 0.82360659 5.75 2.4375 C7 4 7 4 7 6 C8.3303125 4.9790625 8.3303125 4.9790625 9.6875 3.9375 C13 2 13 2 15.875 2.25 C16.57625 2.4975 17.2775 2.745 18 3 C18.75 5.25 18.75 5.25 19 8 C17.68733482 9.35368596 16.35432675 10.68799596 15 12 C15.14389291 16.2688231 18.38087242 19.09295341 21.0625 22.125 C26 27.74283765 26 27.74283765 26 30 C26.66 30 27.32 30 28 30 C27.979375 28.700625 27.95875 27.40125 27.9375 26.0625 C27.92995028 21.30617675 28.40112883 16.71611047 29 12 C32.63 12.33 36.26 12.66 40 13 C40.14084644 17.81306297 40.06222515 22.18646495 39.10546875 26.91015625 C36.98865007 37.52869188 36.98865007 37.52869188 40.375 47.4296875 C43.06571762 50.9116211 46.09202925 54.04547015 49.20605469 57.14892578 C51.99745749 60.02922192 54.38901647 63.18506376 56.8125 66.375 C59.31254969 69.60241922 61.82850056 72.79665066 64.4609375 75.91796875 C65.56308594 77.22701172 65.56308594 77.22701172 66.6875 78.5625 C67.65236328 79.67818359 67.65236328 79.67818359 68.63671875 80.81640625 C70.28462947 83.45589649 70.43263888 84.94098864 70 88 C68 90 68 90 65.7578125 90.07421875 C61.55242321 88.43614218 59.56683272 85.33358564 56.875 81.8125 C56.02131836 80.7287207 56.02131836 80.7287207 55.15039062 79.62304688 C53.42182013 77.42427437 51.71023964 75.21304406 50 73 C48.61032978 71.22513434 47.21662423 69.45350419 45.82250977 67.68212891 C44.93579607 66.55429849 44.05088569 65.42504809 43.16772461 64.29443359 C39.64865502 59.79434786 36.05211298 55.36104008 32.4375 50.9375 C27.61720322 45.03524039 22.92234499 39.05480497 18.30078125 32.99609375 C14.93325027 28.6108709 11.47510529 24.30020012 8 20 C4.74670925 20.59907831 2.89335564 21.64179356 0.3828125 23.7734375 C-0.29918213 24.34521729 -0.98117676 24.91699707 -1.68383789 25.50610352 C-2.40692139 26.12283936 -3.13000488 26.7395752 -3.875 27.375 C-5.41167701 28.66405305 -6.9494518 29.95179848 -8.48828125 31.23828125 C-9.63417725 32.19855225 -9.63417725 32.19855225 -10.80322266 33.17822266 C-13.84378093 35.69974364 -16.94346818 38.13920342 -20.0625 40.5625 C-25.09257161 44.4808896 -30.06059715 48.4679189 -35 52.5 C-40.71961911 57.16886493 -46.4823851 61.77529629 -52.30859375 66.31054688 C-54.99857137 68.40820582 -57.62467473 70.54431385 -60.19140625 72.7890625 C-63 75 -63 75 -66.3125 75.375 C-69 75 -69 75 -70 74 C-70.2890625 71.6640625 -70.2890625 71.6640625 -70 69 C-68.5234375 67.1484375 -68.5234375 67.1484375 -66.375 65.375 C-65.54871094 64.68535156 -64.72242187 63.99570313 -63.87109375 63.28515625 C-59.5326944 59.83214452 -55.18480156 56.39328924 -50.80859375 52.98828125 C-46.82734255 49.88028349 -42.91144643 46.69512653 -39 43.5 C-34.03782922 39.44998859 -29.04832842 35.44211237 -24 31.5 C-18.70719184 27.36470597 -13.46553978 23.16985903 -8.25 18.9375 C-7.55777344 18.37675781 -6.86554688 17.81601563 -6.15234375 17.23828125 C-5.50910156 16.71492188 -4.86585938 16.1915625 -4.203125 15.65234375 C-3.63239258 15.18820068 -3.06166016 14.72405762 -2.47363281 14.24584961 C-0.86742445 12.92306943 -0.86742445 12.92306943 1 11 C0.319375 10.2575 -0.36125 9.515 -1.0625 8.75 C-3 6 -3 6 -2.875 3.8125 C-2 2 -2 2 0 0 Z " fill="#F3F9CC" transform="translate(192,67)"/>
<path d="M0 0 C1.5249559 0.14748184 1.5249559 0.14748184 3.08071899 0.29794312 C4.84545563 0.46317474 4.84545563 0.46317474 6.64584351 0.63174438 C7.95418152 0.7682843 9.26251953 0.90482422 10.61050415 1.04550171 C11.29143379 1.11470573 11.97236343 1.18390976 12.67392731 1.25521088 C18.14799476 1.81168574 23.61756562 2.40699387 29.08706665 3.00643921 C30.8646667 3.19977418 32.64228553 3.39293655 34.41992188 3.5859375 C39.08181401 4.09258979 43.74343187 4.60172396 48.40499878 5.11135864 C53.97681536 5.71990314 59.54901098 6.32496789 65.12113571 6.93068314 C69.61975351 7.42003965 74.11817047 7.91112163 78.61618042 8.40603638 C80.35028726 8.59676398 82.08439772 8.78745868 83.81851196 8.9781189 C85.07363523 9.11611971 85.07363523 9.11611971 86.35411453 9.25690842 C90.95759213 9.76113753 95.56213318 10.25185892 100.16900826 10.72404289 C102.13295924 10.92558022 104.09651803 11.13092831 106.06005859 11.33642578 C108.3700532 11.5776054 110.6807598 11.81210092 112.99224854 12.03851318 C113.98437347 12.143461 114.97649841 12.24840881 115.99868774 12.35653687 C117.27514664 12.48519638 117.27514664 12.48519638 118.57739258 12.61645508 C120.61050415 13.04550171 120.61050415 13.04550171 122.61050415 15.04550171 C122.86050415 17.54550171 122.86050415 17.54550171 122.61050415 20.04550171 C120.61050415 22.04550171 120.61050415 22.04550171 118.1914072 22.06366634 C117.20383899 21.9583286 116.21627077 21.85299086 115.19877625 21.74446106 C114.11557161 21.63452253 113.03236698 21.52458401 111.91633797 21.41131401 C110.82541281 21.29059595 109.73448765 21.16987789 108.61050415 21.04550171 C106.74420735 20.85804144 104.87790997 20.67058701 103.01161194 20.48313904 C101.07363672 20.27759763 99.13582207 20.07053789 97.19815063 19.8621521 C95.59341133 19.69118767 95.59341133 19.69118767 93.95625305 19.51676941 C90.46450061 19.14407927 86.9730141 18.76898448 83.4815979 18.39315796 C82.28276537 18.26418058 81.08393284 18.13520321 79.84877205 18.00231743 C73.52328053 17.32122002 67.1980388 16.6378481 60.87295532 15.95297241 C55.64068517 15.38689925 50.40793526 14.82560463 45.17471313 14.2684021 C38.83830585 13.59372306 32.50280934 12.91104767 26.16789436 12.22250175 C23.75638918 11.96174391 21.34457637 11.70381523 18.93246269 11.44874763 C15.57352389 11.09294984 12.21585724 10.72688364 8.85830688 10.35824585 C7.85936401 10.25479858 6.86042114 10.15135132 5.83120728 10.04476929 C4.91886826 9.94249527 4.00652924 9.84022125 3.06654358 9.73484802 C2.27371696 9.6494983 1.48089033 9.56414858 0.66403866 9.4762125 C-1.38949585 9.04550171 -1.38949585 9.04550171 -4.38949585 7.04550171 C-4.70199585 4.54550171 -4.70199585 4.54550171 -4.38949585 2.04550171 C-2.38949585 0.04550171 -2.38949585 0.04550171 0 0 Z " fill="#F1F8CC" transform="translate(124.38949584960938,210.95449829101563)"/>
<path d="M0 0 C9.12467206 0.08203405 18.13742371 1.27997762 27.1875 2.34936523 C29.1145087 2.57181953 31.04159364 2.79361431 32.96875 3.01478577 C38.01501584 3.59544662 43.06034296 4.18387859 48.10546875 4.77435303 C56.1774595 5.71765185 64.25089266 6.64853771 72.32421875 7.58032417 C75.12265888 7.90435724 77.9207307 8.23142211 80.71875 8.55906677 C82.45830072 8.76150079 84.19788302 8.96366356 85.9375 9.16552734 C86.75565186 9.26103347 87.57380371 9.35653959 88.41674805 9.45493984 C93.92729243 10.08647065 99.4329422 10.56124375 104.97265625 10.86329651 C107.1875 11.19702148 107.1875 11.19702148 110.1875 13.19702148 C110.5 15.69702148 110.5 15.69702148 110.1875 18.19702148 C108.1875 20.19702148 108.1875 20.19702148 105.21398926 20.25268555 C103.93745483 20.15697266 102.66092041 20.06125977 101.34570312 19.96264648 C100.63875557 19.91045959 99.93180801 19.85827271 99.20343781 19.80450439 C89.99774538 19.0863287 80.82713303 18.00953215 71.65625 16.94702148 C69.72534035 16.7263003 67.79439062 16.50592951 65.86340332 16.28588867 C60.8290877 15.71122576 55.7953505 15.13164373 50.76171875 14.55102539 C45.63838826 13.96106119 40.51446937 13.3762525 35.390625 12.79077148 C27.90010996 11.93383649 20.40973616 11.07568673 12.91992188 10.21264648 C12.15095581 10.12430542 11.38198975 10.03596436 10.58972168 9.94494629 C9.15210376 9.77900002 7.71470641 9.61112811 6.27757263 9.44104004 C4.83285489 9.27236746 3.38717189 9.11183521 1.94081116 8.95788574 C-3.58669193 8.34071753 -3.58669193 8.34071753 -5.875 6.88452148 C-6.8125 5.19702148 -6.8125 5.19702148 -6.5625 3.07202148 C-5.14738243 -0.46577243 -3.63462317 0.0308379 0 0 Z " fill="#F1F8CB" transform="translate(138.8125,146.802978515625)"/>
<path d="M0 0 C0.98449631 0.08918701 1.96899261 0.17837402 2.98332214 0.27026367 C19.9729667 1.86059347 36.93079388 3.79265031 53.88842773 5.68847656 C59.07582976 6.26794894 64.26437036 6.83651779 69.45322132 7.40284729 C73.46945043 7.84310606 77.48478766 8.29110927 81.49991417 8.74130249 C83.41541194 8.95471727 85.33123794 9.16520718 87.24738503 9.37271118 C89.9013493 9.66084481 92.55386443 9.95987128 95.20629883 10.26171875 C95.99518997 10.34489349 96.78408112 10.42806824 97.59687805 10.51376343 C103.01001399 11.14673274 103.01001399 11.14673274 105.23828125 13.375 C105.42578125 15.9375 105.42578125 15.9375 105.23828125 18.375 C103.44749091 20.16579034 100.8625668 19.55488202 98.44018555 19.57202148 C88.88603926 19.49841388 79.48569261 18.34723487 70.0078125 17.22265625 C68.08127631 17.00011849 66.15465392 16.77832579 64.22795105 16.55723572 C59.19271172 15.97761937 54.15859491 15.38878897 49.12469482 14.79766846 C43.01786698 14.0821354 36.90986259 13.37673169 30.80192852 12.67071438 C26.04839932 12.12119008 21.29509513 11.56994732 16.54243469 11.01295471 C15.23347245 10.86033251 15.23347245 10.86033251 13.89806652 10.70462704 C12.22508556 10.50941721 10.55225803 10.31288691 8.87960529 10.11488438 C3.67364842 9.50779483 -1.5221047 9.04898291 -6.75971985 8.80638123 C-9.2798062 8.26336497 -10.23623489 7.42953829 -11.76171875 5.375 C-11.57421875 2.75 -11.57421875 2.75 -10.76171875 0.375 C-7.39634456 -1.3076871 -3.65880592 -0.34244731 0 0 Z " fill="#F1F8CC" transform="translate(142.76171875,157.625)"/>
<path d="M0 0 C2.12467319 0.24050349 4.24935806 0.48090385 6.37405396 0.72120667 C10.78990994 1.22177344 15.20536688 1.72570747 19.62060547 2.23168945 C25.28676068 2.88043417 30.95418875 3.5172653 36.62200737 4.15128994 C40.99256225 4.64206999 45.36219478 5.14070031 49.73160172 5.64158821 C51.82293902 5.8800435 53.91460373 6.11564499 56.00658798 6.34835625 C58.91279408 6.67248982 61.81753674 7.00754389 64.72216797 7.34545898 C65.5875116 7.43955551 66.45285522 7.53365204 67.34442139 7.63059998 C73.2794932 8.33808695 73.2794932 8.33808695 75.5078125 10.56640625 C75.6953125 13.12890625 75.6953125 13.12890625 75.5078125 15.56640625 C73.86948903 17.20472972 72.08586508 16.75111191 69.81567383 16.77490234 C60.01555105 16.68603237 50.30441486 15.36210523 40.58203125 14.23046875 C38.46365597 13.98821558 36.34523159 13.74639146 34.22676086 13.50497437 C29.80780555 12.99985796 25.38943497 12.48997053 20.97143555 11.9765625 C15.3191117 11.32005105 9.66555403 10.67495925 4.01152325 10.03333473 C-0.35477326 9.53667482 -4.7203969 9.03429491 -9.08583641 8.53016281 C-11.17037813 8.29006841 -13.25511572 8.05166816 -15.34005165 7.81502151 C-18.25254827 7.48351396 -21.16405914 7.14437696 -24.07543945 6.80322266 C-24.92909088 6.70755508 -25.78274231 6.61188751 -26.66226196 6.51332092 C-31.46134635 5.9416281 -35.88284493 5.02720102 -40.4921875 3.56640625 C-40.4921875 1.58640625 -40.4921875 -0.39359375 -40.4921875 -2.43359375 C-31.1471715 -7.10610175 -10.18176591 -1.16203122 0 0 Z " fill="#F2F9CC" transform="translate(168.4921875,193.43359375)"/>
<path d="M0 0 C0.99055389 0.09603012 1.98110779 0.19206024 3.00167847 0.29100037 C4.76732147 0.45633774 4.76732147 0.45633774 6.56863403 0.62501526 C7.94988036 0.76736162 9.33103983 0.91055239 10.71212769 1.0544281 C12.28418676 1.2118788 13.85627057 1.36908261 15.42837524 1.52607727 C20.98077363 2.08768118 26.53008914 2.67725739 32.07931519 3.26927185 C33.58736914 3.42964023 33.58736914 3.42964023 35.12588882 3.59324837 C40.43155814 4.15751493 45.73698285 4.72401787 51.04220581 5.29246521 C56.50544592 5.87741489 61.96945932 6.45478838 67.4336834 7.03046322 C71.65665957 7.4767296 75.87903287 7.92850926 80.10126114 8.38179207 C82.11600133 8.59713106 84.13096204 8.81041746 86.14614487 9.02157402 C88.96030261 9.31697797 91.77351754 9.62018769 94.5866394 9.92527771 C95.41066757 10.0100235 96.23469574 10.09476929 97.08369446 10.18208313 C109.17581022 11.51811064 109.17581022 11.51811064 111.71212769 14.0544281 C111.83712769 16.5544281 111.83712769 16.5544281 111.71212769 19.0544281 C110.17678018 20.58977561 108.82247987 20.21066794 106.67672729 20.2197113 C99.16991513 20.13978008 91.73200662 19.23092317 84.27853394 18.40989685 C82.67603818 18.23727189 81.07349287 18.06510651 79.47090149 17.89337158 C75.25745457 17.44056202 71.04472966 16.98134802 66.8321228 16.52079773 C62.64086641 16.06378254 58.44892814 15.61311596 54.25704956 15.16184998 C46.99331508 14.37931202 39.73082122 13.58590036 32.46872902 12.78828239 C28.10975987 12.31120855 23.74971276 11.84743253 19.38766193 11.39941311 C17.44826467 11.19984911 15.509258 10.99650059 13.57026672 10.79302979 C11.2518254 10.55002276 8.93272424 10.31319841 6.61289978 10.08377075 C5.09955299 9.92289726 5.09955299 9.92289726 3.55563354 9.7587738 C2.68563217 9.67021622 1.8156308 9.58165863 0.91926575 9.49041748 C-1.28787231 9.0544281 -1.28787231 9.0544281 -4.28787231 7.0544281 C-4.60037231 4.5544281 -4.60037231 4.5544281 -4.28787231 2.0544281 C-2.28787231 0.0544281 -2.28787231 0.0544281 0 0 Z " fill="#F3F9CC" transform="translate(133.28787231445313,178.94557189941406)"/>
<path d="M0 0 C2.40080165 0.02823046 4.75687161 0.12881862 7.15063477 0.28540039 C8.28290544 0.35647932 8.28290544 0.35647932 9.43805027 0.42899418 C19.52041571 1.11091066 29.55218152 2.28500076 39.58984375 3.43359375 C41.71308211 3.67414655 43.83633785 3.91454594 45.95960999 4.15480042 C50.36952918 4.65503572 54.77900604 5.15897936 59.18823242 5.6652832 C64.84646778 6.31442567 70.50602741 6.95115481 76.16600704 7.58488369 C80.53227683 8.07561757 84.89761707 8.57425195 89.26272774 9.07518196 C91.35127706 9.31360624 93.44015054 9.54920834 95.52934074 9.78195 C98.43065297 10.10606036 101.3304955 10.44111203 104.23022461 10.77905273 C105.09399719 10.87314926 105.95776978 10.96724579 106.84771729 11.06419373 C112.77165151 11.77165151 112.77165151 11.77165151 115 14 C114.44444444 18.55555556 114.44444444 18.55555556 113 20 C110.6929626 19.98032545 108.43300461 19.88458865 106.1328125 19.734375 C105.38709991 19.68762634 104.64138733 19.64087769 103.87307739 19.5927124 C92.17918201 18.80155793 80.52727022 17.49512682 68.875 16.25 C67.63007782 16.11783081 66.38515564 15.98566162 65.10250854 15.8494873 C49.58380263 14.19830446 34.07033416 12.50165532 18.58428955 10.56530762 C16.91090704 10.35607911 15.23719991 10.14942984 13.56317139 9.94543457 C11.28170531 9.6655815 9.00207942 9.37409966 6.72265625 9.078125 C5.46203369 8.91731445 4.20141113 8.75650391 2.90258789 8.59082031 C0 8 0 8 -2 6 C-1.44444444 1.44444444 -1.44444444 1.44444444 0 0 Z " fill="#F3F9CC" transform="translate(128,201)"/>
<path d="M0 0 C10.30644098 0.21852962 20.59953832 1.54325287 30.828125 2.7421875 C32.31138382 2.9132622 33.79468156 3.08399976 35.27801514 3.25442505 C39.15421508 3.70059637 43.0299213 4.15091379 46.90551758 4.60229492 C51.52560816 5.13969377 56.14620069 5.6727584 60.76683807 6.20543289 C64.53017644 6.63940291 68.2932524 7.0754004 72.05578613 7.51629639 C79.08150173 8.3369951 86.10735792 9.12414461 93.14648438 9.82128906 C94.40128601 9.94891632 95.65608765 10.07654358 96.94891357 10.20803833 C99.28346504 10.44310135 101.619114 10.66759593 103.95587158 10.87960815 C105.49123566 11.0361235 105.49123566 11.0361235 107.05761719 11.19580078 C107.94551941 11.27951935 108.83342163 11.36323792 109.74822998 11.44949341 C112.36852075 12.09009495 113.40155128 12.8479995 115 15 C114.74853421 17.13745922 114.54074221 18.45925779 113 20 C106.43755343 20.20498677 100.0497055 19.72941467 93.52734375 19.046875 C92.04444351 18.89660606 92.04444351 18.89660606 90.53158569 18.74330139 C87.33301452 18.41726017 84.13524926 18.08399875 80.9375 17.75 C79.29737442 17.58109756 79.29737442 17.58109756 77.62411499 17.40878296 C62.89182876 15.89152849 48.18691622 14.2418404 33.50292969 12.31176758 C24.837791 11.1825649 16.17600426 10.30259403 7.45239258 9.77075195 C6.63665771 9.71105225 5.82092285 9.65135254 4.98046875 9.58984375 C4.27817139 9.54722412 3.57587402 9.50460449 2.85229492 9.46069336 C0.45637517 8.8647924 -0.51832481 7.95126756 -2 6 C-1.57894737 1.57894737 -1.57894737 1.57894737 0 0 Z " fill="#F3F9CC" transform="translate(132,168)"/>
<path d="M0 0 C6.48947174 0.07618232 12.90063824 0.87301832 19.34155273 1.61474609 C20.69799465 1.76733435 22.0544869 1.91947567 23.411026 2.07119751 C26.9703243 2.47046976 30.52892487 2.87565138 34.08740234 3.28216553 C37.65024134 3.68818449 41.21368894 4.08878101 44.77709961 4.48974609 C50.21984344 5.10277772 55.66228726 5.71838341 61.10449219 6.33618164 C76.3856201 8.09560642 76.3856201 8.09560642 91.68530273 9.68115234 C92.72847656 9.7865332 92.72847656 9.7865332 93.79272461 9.89404297 C95.15636492 10.03135869 96.52108576 10.15818032 97.88647461 10.27685547 C100.70415671 10.57500867 102.91623767 10.90860938 105.34936523 12.40771484 C106.71807383 14.8846895 105.94172616 16.47612857 105.31420898 19.15380859 C94.52354238 19.48464451 84.05218961 18.45177079 73.34545898 17.25537109 C71.53435923 17.05785248 69.72320071 16.86087192 67.9119873 16.66439819 C64.13623396 16.25337041 60.36102391 15.8377682 56.58618164 15.41845703 C51.78282263 14.88499909 46.97857243 14.36016803 42.17392731 13.83843422 C38.4398541 13.43247743 34.7061317 13.0233691 30.97251892 12.61320114 C29.20261853 12.41885531 27.43265144 12.22511574 25.66261292 12.03203201 C-2.93620683 8.90339278 -2.93620683 8.90339278 -4.68579102 7.15380859 C-4.81079102 4.15380859 -4.81079102 4.15380859 -4.68579102 1.15380859 C-3.68579102 0.15380859 -3.68579102 0.15380859 0 0 Z " fill="#F2F9CC" transform="translate(141.685791015625,135.84619140625)"/>
<path d="M0 0 C7.44197425 0.00242134 14.70306522 0.48376798 22.08740234 1.39160156 C23.6478125 1.55595703 23.6478125 1.55595703 25.23974609 1.72363281 C31.25679015 2.45367009 34.91254353 3.47244272 39.71240234 7.14160156 C44.164943 7.59440231 45.95783668 7.64464534 49.71240234 5.14160156 C52.90771484 5.09472656 52.90771484 5.09472656 56.83740234 5.39160156 C57.53373779 5.44388916 58.23007324 5.49617676 58.94750977 5.55004883 C61.20448711 5.72888655 63.45818555 5.9308782 65.71240234 6.14160156 C66.88295166 6.25060791 66.88295166 6.25060791 68.07714844 6.36181641 C70.39488513 6.58617523 72.70991502 6.82804871 75.02490234 7.07910156 C75.74758301 7.15354492 76.47026367 7.22798828 77.21484375 7.3046875 C80.75529548 7.71823252 82.68979822 8.12653214 85.71240234 10.14160156 C86.08740234 12.64160156 86.08740234 12.64160156 85.71240234 15.14160156 C81.72501601 17.79985912 78.76736125 17.0720384 74.21240234 16.57910156 C73.28967529 16.48757812 72.36694824 16.39605469 71.41625977 16.30175781 C58.78309508 15.0087777 46.17057912 13.490144 33.56005859 11.99487305 C32.67136078 11.88972885 31.78266296 11.78458466 30.86703491 11.67625427 C29.10033461 11.46693999 27.33375134 11.25663536 25.56729126 11.04530334 C21.12238981 10.51907456 16.67778589 10.03218452 12.22167969 9.61035156 C11.34448776 9.52563599 10.46729584 9.44092041 9.56352234 9.3536377 C7.89612224 9.19506407 6.22799571 9.04390019 4.55915833 8.90124512 C-1.06610857 8.36309064 -1.06610857 8.36309064 -3.28759766 6.14160156 C-3.47509766 3.57910156 -3.47509766 3.57910156 -3.28759766 1.14160156 C-2.28759766 0.14160156 -2.28759766 0.14160156 0 0 Z " fill="#F2F9CC" transform="translate(152.28759765625,126.8583984375)"/>
<path d="M0 0 C7.39970968 0.06657937 14.68234907 0.85708172 22.01171875 1.80322266 C24.13385986 2.07394037 26.25784332 2.32396346 28.38256836 2.57348633 C29.74014853 2.74476229 31.09757725 2.91724407 32.45483398 3.09106445 C33.67420654 3.24293213 34.8935791 3.3947998 36.14990234 3.55126953 C39.20225032 4.26482141 40.42664856 4.69281905 42.17749023 7.2590332 C41.92602444 9.39649242 41.71823244 10.71829099 40.17749023 12.2590332 C33.46914437 12.86631504 28.12835272 11.95420953 22.23999023 8.5715332 C18.4324185 6.93971675 16.15824703 7.32238455 12.17749023 8.2590332 C11.84749023 8.5890332 11.51749023 8.9190332 11.17749023 9.2590332 C5.65269447 9.5447985 1.41283814 9.00414917 -3.82250977 7.2590332 C-3.94750977 4.8840332 -3.94750977 4.8840332 -3.82250977 2.2590332 C-1.82250977 0.2590332 -1.82250977 0.2590332 0 0 Z " fill="#F2F9CC" transform="translate(176.822509765625,106.740966796875)"/>
<path d="M0 0 C0.70523804 0.00404846 1.41047607 0.00809692 2.13708496 0.01226807 C2.8619812 0.01035461 3.58687744 0.00844116 4.33374023 0.00646973 C5.86698758 0.0051082 7.40024646 0.00880243 8.93347168 0.01715088 C11.28415755 0.02785129 13.63407919 0.01725498 15.98474121 0.00445557 C17.47302415 0.00577717 18.96130662 0.00833957 20.44958496 0.01226807 C21.154823 0.0082196 21.86006104 0.00417114 22.58666992 0 C27.56341011 0.04796821 27.56341011 0.04796821 29.79333496 2.27789307 C30.04333496 4.77789307 30.04333496 4.77789307 29.79333496 7.27789307 C27.34238343 9.7288446 25.96003314 9.53240733 22.61231995 9.58143616 C21.91021896 9.58052475 21.20811798 9.57961334 20.48474121 9.57867432 C19.40095436 9.58510201 19.40095436 9.58510201 18.29527283 9.59165955 C16.76623584 9.59740544 15.23717152 9.59790119 13.70812988 9.59356689 C11.36821823 9.59040977 9.02957429 9.61385065 6.68981934 9.63922119 C5.20479489 9.64149446 3.71976704 9.64219755 2.23474121 9.64117432 C1.53466446 9.65038406 0.83458771 9.65959381 0.11329651 9.66908264 C-2.81440341 9.64119893 -4.75109723 9.59910298 -7.18347168 7.88409424 C-8.20666504 6.27789307 -8.20666504 6.27789307 -8.01916504 4.21539307 C-6.27467943 0.05546584 -4.19859147 0.04046804 0 0 Z " fill="#E6EFC6" transform="translate(207.2066650390625,296.72210693359375)"/>
<path d="M0 0 C11.71993254 0.07561247 23.44344808 2.24153812 35 4 C35.625 6.875 35.625 6.875 36 10 C34 12 34 12 31.41015625 12.046875 C24.51741944 11.43561713 24.51741944 11.43561713 22.22851562 11.21191406 C19.80490896 10.9814484 17.3796084 10.78369866 14.953125 10.5859375 C13.2394629 10.43364078 11.52591905 10.28000728 9.8125 10.125 C8.98693604 10.05893555 8.16137207 9.99287109 7.31079102 9.92480469 C6.53405029 9.84907227 5.75730957 9.77333984 4.95703125 9.6953125 C3.92026245 9.6027417 3.92026245 9.6027417 2.86254883 9.50830078 C0.48731095 8.86008407 -0.51577916 7.94439667 -2 6 C-1.57894737 1.57894737 -1.57894737 1.57894737 0 0 Z " fill="#EFF6CB" transform="translate(116,287)"/>
<path d="M0 0 C20.70079686 1.72175338 41.33876052 4.05167783 61.98626709 6.30938721 C66.84745948 6.84050398 71.70889729 7.36936484 76.5703125 7.8984375 C86.04711121 8.93013222 95.52364302 9.96425626 105 11 C105 11.33 105 11.66 105 12 C103.35 12.33 101.7 12.66 100 13 C100 13.33 100 13.66 100 14 C88.82536027 13.37534838 77.7546419 12.26577122 66.640625 10.96875 C64.91725602 10.77044442 63.1938461 10.57249431 61.47039795 10.37487793 C56.97651242 9.85881825 52.48309953 9.33876172 47.98980713 8.81756592 C40.78766388 7.98277897 33.58484066 7.15388902 26.38195038 6.32557678 C23.8899095 6.03837063 21.39809631 5.74925313 18.90631104 5.45983887 C10.94585445 4.53896022 2.98712469 3.66132461 -5 3 C-5 2.67 -5 2.34 -5 2 C-3.35 2 -1.7 2 0 2 C0 1.34 0 0.68 0 0 Z " fill="#366773" transform="translate(140,144)"/>
<path d="M0 0 C8.03439726 0.40380853 15.93877882 1.21962946 23.90234375 2.31640625 C33.73135295 3.6323467 43.57622454 4.74966403 53.4375 5.7890625 C54.15017973 5.86420012 54.86285946 5.93933773 55.59713554 6.01675224 C59.98654782 6.47854722 64.37637851 6.93626598 68.76635742 7.39263916 C74.70706594 8.01063778 80.64731503 8.63301701 86.58743286 9.25666428 C88.63620075 9.47119095 90.68515008 9.68391043 92.73413086 9.89639282 C93.98073486 10.02677948 95.22733887 10.15716614 96.51171875 10.29150391 C97.59928467 10.40458893 98.68685059 10.51767395 99.80737305 10.63418579 C103.2157329 11.02471888 106.60609039 11.50018489 110 12 C109.34 12.33 108.68 12.66 108 13 C108 13.66 108 14.32 108 15 C84.71195794 12.86073055 61.48155145 10.30005061 38.25 7.62194824 C33.68968458 7.09685742 29.12900418 6.57495526 24.56835938 6.05273438 C15.71189226 5.03816579 6.85581516 4.0202436 -2 3 C-1.34 2.01 -0.68 1.02 0 0 Z " fill="#2C606F" transform="translate(130,209)"/>
<path d="M0 0 C1.65648687 0.18656323 3.31104574 0.390756 4.96368408 0.60879517 C5.85376537 0.71247595 6.74384666 0.81615673 7.66090012 0.92297935 C9.53134539 1.14094363 11.40107231 1.36515274 13.27006531 1.59523773 C16.69395604 2.00994718 20.12196291 2.37158373 23.55235672 2.7277317 C26.07544646 2.98968346 28.59765955 3.25894784 31.11975098 3.53033447 C31.97709084 3.62254902 32.83443069 3.71476357 33.71775055 3.80977249 C34.59458244 3.90409939 35.47141434 3.99842628 36.37481689 4.09561157 C38.22952616 4.29459791 40.08424229 4.49352035 41.93896484 4.69238281 C46.74577519 5.2079354 51.55249394 5.72433702 56.35919189 6.24093628 C61.29403099 6.77114848 66.22895929 7.30052901 71.16387939 7.82998657 C80.79156939 8.86304229 90.41916248 9.896998 100.04669189 10.93154907 C98.94538879 12.44215393 98.94538879 12.44215393 97.04669189 13.93154907 C94.2084198 14.08610535 94.2084198 14.08610535 90.6675415 13.76187134 C90.01272513 13.70524354 89.35790876 13.64861574 88.68324947 13.59027195 C86.46861679 13.39095704 84.25808788 13.16394761 82.04669189 12.93154907 C81.26890003 12.85232586 80.49110817 12.77310265 79.68974686 12.69147873 C73.49229732 12.05507932 67.3027731 11.35381638 61.11309814 10.64639282 C59.1391684 10.42332141 57.16520432 10.20055359 55.19120789 9.97807312 C50.04702856 9.39748402 44.90331969 8.81282823 39.75970459 8.2272644 C34.49041573 7.62814285 29.22068308 7.03295123 23.95098877 6.43740845 C13.6491235 5.27258983 3.34775195 4.10346567 -6.95330811 2.93154907 C-4.45838516 -0.06390428 -4.24952557 -0.07357989 0 0 Z " fill="#2C606F" transform="translate(142.95330810546875,188.06845092773438)"/>
<path d="M0 0 C1.69760434 0.16770953 3.39336884 0.35458305 5.08740234 0.55517578 C6.03781403 0.65482635 6.98822571 0.75447693 7.96743774 0.85714722 C11.37159915 1.22029805 14.7721866 1.61019201 18.17333984 2.00048828 C20.23479984 2.23032288 22.29648044 2.45811305 24.35816574 2.6859169 C33.61988767 3.71055209 42.87688591 4.77496042 52.13330078 5.84631348 C56.21022768 6.31759996 60.28750319 6.78585122 64.36474609 7.25439453 C72.30127887 8.16686936 80.23743327 9.08258332 88.17333984 10.00048828 C87.84333984 10.99048828 87.51333984 11.98048828 87.17333984 13.00048828 C75.86998722 12.37069351 64.66986737 11.2403227 53.42724609 9.93408203 C51.67752054 9.73342022 49.92775887 9.53307309 48.17796326 9.33302307 C43.62560333 8.81172401 39.07373883 8.28622045 34.52197266 7.75976562 C29.85592966 7.22087282 25.18941911 6.68606019 20.52294922 6.15087891 C11.40595706 5.1046862 2.28948431 4.05404018 -6.82666016 3.00048828 C-4.3723671 0.08070229 -4.13598626 0.00052775 0 0 Z " fill="#3A6B75" transform="translate(142.82666015625,198.99951171875)"/>
<path d="M0 0 C1.69760434 0.16770953 3.39336884 0.35458305 5.08740234 0.55517578 C6.03781403 0.65482635 6.98822571 0.75447693 7.96743774 0.85714722 C11.37159915 1.22029805 14.7721866 1.61019201 18.17333984 2.00048828 C20.23479984 2.23032288 22.29648044 2.45811305 24.35816574 2.6859169 C33.61988767 3.71055209 42.87688591 4.77496042 52.13330078 5.84631348 C56.21022768 6.31759996 60.28750319 6.78585122 64.36474609 7.25439453 C72.30127887 8.16686936 80.23743327 9.08258332 88.17333984 10.00048828 C87.84333984 10.99048828 87.51333984 11.98048828 87.17333984 13.00048828 C67.74468003 11.56797139 48.42247296 9.40660143 29.0760498 7.15466309 C25.01244819 6.68250656 20.94833898 6.21475943 16.88427734 5.74658203 C8.98014357 4.8354022 1.07656197 3.91954176 -6.82666016 3.00048828 C-4.3723671 0.08070229 -4.13598626 0.00052775 0 0 Z " fill="#346672" transform="translate(144.82666015625,165.99951171875)"/>
<path d="M0 0 C1.60214925 0.20379383 3.20436586 0.40705867 4.80664062 0.60986328 C5.64267822 0.72033997 6.47871582 0.83081665 7.34008789 0.94464111 C11.70979933 1.50774506 16.08946552 1.97912379 20.46875 2.4609375 C22.3083872 2.66673785 24.14798631 2.87287893 25.98754883 3.0793457 C45.62058833 5.2755422 65.25671935 7.3873234 84.921875 9.27734375 C83.601875 9.60734375 82.281875 9.93734375 80.921875 10.27734375 C80.921875 10.93734375 80.921875 11.59734375 80.921875 12.27734375 C48.91348932 9.02363979 16.91715769 5.6571868 -15.078125 2.27734375 C-15.078125 1.94734375 -15.078125 1.61734375 -15.078125 1.27734375 C-9.75441488 -0.58040022 -5.60035781 -0.80362307 0 0 Z " fill="#306370" transform="translate(159.078125,178.72265625)"/>
<path d="M0 0 C19.13734138 1.59385688 38.21938853 3.69488745 57.30224609 5.83129883 C60.96911218 6.24110223 64.63672871 6.64293342 68.30517578 7.03833008 C72.78635001 7.5213825 77.26587304 8.01762612 81.74451447 8.52360725 C83.43932269 8.71284285 85.13465955 8.89740529 86.83049774 9.07717705 C89.17866944 9.3270613 91.52431744 9.59386208 93.87011719 9.86499023 C94.91554939 9.97033333 94.91554939 9.97033333 95.98210144 10.07780457 C97.90838623 10.3110199 97.90838623 10.3110199 101 11 C101.99 12.485 101.99 12.485 103 14 C90.96630517 13.34561297 79.03692603 12.08296531 67.06640625 10.71484375 C65.0924765 10.49177234 63.11851243 10.26900452 61.14451599 10.04652405 C56.00033667 9.46593495 50.85662779 8.88127916 45.7130127 8.29571533 C40.44372384 7.69659378 35.17399119 7.10140216 29.90429688 6.50585938 C19.60243161 5.34104076 9.30106006 4.17191659 -1 3 C-0.67 2.01 -0.34 1.02 0 0 Z " fill="#356773" transform="translate(139,155)"/>
<path d="M0 0 C0.66 0.33 1.32 0.66 2 1 C1.34 1.66 0.68 2.32 0 3 C0.66 3.66 1.32 4.32 2 5 C0.35 5.66 -1.3 6.32 -3 7 C-3 8.65 -3 10.3 -3 12 C-0.03 12.495 -0.03 12.495 3 13 C1.68 13.33 0.36 13.66 -1 14 C-1 14.66 -1 15.32 -1 16 C-5.62 16 -10.24 16 -15 16 C-15 17.65 -15 19.3 -15 21 C-12.69 21.66 -10.38 22.32 -8 23 C-8.33 23.99 -8.66 24.98 -9 26 C-14.94 25.67 -20.88 25.34 -27 25 C-25.97414112 20.89656448 -25.81585718 20.45377762 -22.75390625 18.046875 C-22.08552734 17.51344482 -21.41714844 16.98001465 -20.72851562 16.43041992 C-20.01373047 15.87588135 -19.29894531 15.32134277 -18.5625 14.75 C-17.84126953 14.17805908 -17.12003906 13.60611816 -16.37695312 13.0168457 C-14.93039729 11.87068612 -13.48072496 10.72844789 -12.02783203 9.59033203 C-9.33411678 7.47777952 -6.66751125 5.33302344 -4 3.1875 C-2.66720103 2.12432977 -1.33411449 1.06151898 0 0 Z " fill="#356673" transform="translate(177,102)"/>
<path d="M0 0 C1.31484375 0.09796875 2.6296875 0.1959375 3.984375 0.296875 C5.94117188 0.42835937 5.94117188 0.42835937 7.9375 0.5625 C11.45875254 1.01171329 14.42549204 1.79319885 17.734375 3.046875 C18.359375 5.421875 18.359375 5.421875 18.734375 8.046875 C16.734375 10.046875 16.734375 10.046875 14.66796875 10.27734375 C-0.81984187 10.01073042 -0.81984187 10.01073042 -5.265625 7.046875 C-5.578125 4.546875 -5.578125 4.546875 -5.265625 2.046875 C-3.265625 0.046875 -3.265625 0.046875 0 0 Z " fill="#F1F8CB" transform="translate(190.265625,96.953125)"/>
<path d="M0 0 C6.34933244 0.04600966 12.5093599 1.09196443 18.75 2.1875 C18.42 4.8275 18.09 7.4675 17.75 10.1875 C15.39499052 10.07232579 13.04150927 9.94562022 10.6875 9.8125 C9.37652344 9.74289063 8.06554687 9.67328125 6.71484375 9.6015625 C-2.83305831 8.60444169 -2.83305831 8.60444169 -5.25 6.1875 C-5.375 3.6875 -5.375 3.6875 -5.25 1.1875 C-3.68405603 -0.37844397 -2.17668297 0.01755389 0 0 Z " fill="#F1F8CB" transform="translate(166.25,116.8125)"/>
<path d="M0 0 C3.45966438 0.2770939 6.91732798 0.57413763 10.375 0.875 C11.35984375 0.95363281 12.3446875 1.03226562 13.359375 1.11328125 C14.77089844 1.23896484 14.77089844 1.23896484 16.2109375 1.3671875 C17.51490479 1.47716064 17.51490479 1.47716064 18.84521484 1.58935547 C21 2 21 2 23 4 C23.1875 6.5625 23.1875 6.5625 23 9 C22 10 22 10 19.6640625 10.1328125 C12.72132966 10.11496486 5.90123482 9.76076604 -1 9 C-0.67 6.03 -0.34 3.06 0 0 Z " fill="#F0F8CB" transform="translate(205,121)"/>
<path d="M0 0 C4.31268363 0.03450147 7.80549579 0.80213687 11.875 2.1875 C12.5 4.5625 12.5 4.5625 12.875 7.1875 C10.01163629 10.05086371 7.92271654 9.48766187 3.9375 9.5 C2.69097656 9.51675781 1.44445312 9.53351563 0.16015625 9.55078125 C-3.125 9.1875 -3.125 9.1875 -5.08203125 7.83203125 C-6.125 6.1875 -6.125 6.1875 -5.875 3.5625 C-4.68825576 -0.19552342 -3.74571736 0.03174337 0 0 Z " fill="#EEF6CA" transform="translate(135.125,277.8125)"/>
<path d="M0 0 C2.49799432 0.03833994 4.9478662 0.14468535 7.4375 0.3125 C8.13166016 0.34794922 8.82582031 0.38339844 9.54101562 0.41992188 C14.75831392 0.75831392 14.75831392 0.75831392 17 3 C17.1875 5.5625 17.1875 5.5625 17 8 C15.02039491 9.97960509 11.32253166 9.229944 8.625 9.25 C7.93921875 9.270625 7.2534375 9.29125 6.546875 9.3125 C3.57222762 9.33564901 1.51160522 9.34708903 -0.9921875 7.6484375 C-2 6 -2 6 -1.75 3.375 C-1 1 -1 1 0 0 Z " fill="#EDF5CA" transform="translate(213,254)"/>
<path d="M0 0 C4.34925334 0.09558799 8.2027095 1.057917 12.375 2.25 C13 4.625 13 4.625 13.375 7.25 C10.88289561 9.74210439 9.37139212 9.51015661 5.96484375 9.5234375 C4.93037109 9.51183594 4.93037109 9.51183594 3.875 9.5 C3.18535156 9.50773438 2.49570313 9.51546875 1.78515625 9.5234375 C-3.37166707 9.50333293 -3.37166707 9.50333293 -5.625 7.25 C-5.875 4.75 -5.875 4.75 -5.625 2.25 C-3.625 0.25 -3.625 0.25 0 0 Z " fill="#ECF4C9" transform="translate(135.625,244.75)"/>
<path d="M0 0 C0.68578125 -0.020625 1.3715625 -0.04125 2.078125 -0.0625 C5.05148439 -0.08563898 7.11185481 -0.09881775 9.61328125 1.6015625 C10.625 3.25 10.625 3.25 10.4375 5.875 C9.625 8.25 9.625 8.25 7.625 9.25 C5.28963902 9.21279449 2.95517332 9.09746067 0.625 8.9375 C-1.2621875 8.81955078 -1.2621875 8.81955078 -3.1875 8.69921875 C-6.375 8.25 -6.375 8.25 -8.375 6.25 C-8.5625 3.6875 -8.5625 3.6875 -8.375 1.25 C-6.39539491 -0.72960509 -2.69753166 0.020056 0 0 Z " fill="#EDF5CA" transform="translate(219.375,232.75)"/>
<path d="M0 0 C2.49799432 0.03833994 4.9478662 0.14468535 7.4375 0.3125 C8.13166016 0.34794922 8.82582031 0.38339844 9.54101562 0.41992188 C14.75831392 0.75831392 14.75831392 0.75831392 17 3 C16.625 6.125 16.625 6.125 16 9 C13.56183415 9.0809723 11.12635616 9.14046972 8.6875 9.1875 C7.65206055 9.22520508 7.65206055 9.22520508 6.59570312 9.26367188 C1.49992642 9.33752371 1.49992642 9.33752371 -0.99609375 7.65234375 C-2 6 -2 6 -1.75 3.375 C-1 1 -1 1 0 0 Z " fill="#EEF6CA" transform="translate(212,265)"/>
<path d="M0 0 C2.49799432 0.03833994 4.9478662 0.14468535 7.4375 0.3125 C8.13166016 0.34794922 8.82582031 0.38339844 9.54101562 0.41992188 C14.75831392 0.75831392 14.75831392 0.75831392 17 3 C17.1875 5.5625 17.1875 5.5625 17 8 C15.02039491 9.97960509 11.32253166 9.229944 8.625 9.25 C7.93921875 9.270625 7.2534375 9.29125 6.546875 9.3125 C3.57222762 9.33564901 1.51160522 9.34708903 -0.9921875 7.6484375 C-2 6 -2 6 -1.75 3.375 C-1 1 -1 1 0 0 Z " fill="#EEF5CA" transform="translate(130,256)"/>
<path d="M0 0 C4.13638445 0.02967277 7.46025706 0.56550297 11.3125 2.1875 C11.9375 4.5625 11.9375 4.5625 12.3125 7.1875 C9.64098149 9.85901851 8.22067468 9.48623672 4.5 9.5 C2.94345703 9.52513672 2.94345703 9.52513672 1.35546875 9.55078125 C-2.02955108 9.14666463 -3.92010768 8.12620922 -6.6875 6.1875 C-5.71638774 0.77701744 -5.5504035 0.04148284 0 0 Z " fill="#F0F7CB" transform="translate(141.6875,223.8125)"/>
<path d="M0 0 C1.42892578 0.00773437 1.42892578 0.00773437 2.88671875 0.015625 C4.30404297 0.00789063 4.30404297 0.00789063 5.75 0 C8.96674051 0.30254268 12.20982802 0.90123427 14.57421875 3.265625 C14.61485707 4.93179615 14.61693975 6.59950595 14.57421875 8.265625 C10.09384832 10.50581022 4.19655236 9.61370977 -0.48828125 8.265625 C-1.45765625 7.935625 -2.42703125 7.605625 -3.42578125 7.265625 C-4.05078125 4.890625 -4.05078125 4.890625 -4.42578125 2.265625 C-2.42578125 0.265625 -2.42578125 0.265625 0 0 Z " fill="#F0F7CB" transform="translate(131.42578125,266.734375)"/>
<path d="M0 0 C1.24910156 0.08894531 2.49820313 0.17789062 3.78515625 0.26953125 C5.65494141 0.38361328 5.65494141 0.38361328 7.5625 0.5 C10.84765625 1.08203125 10.84765625 1.08203125 12.8046875 2.5 C13.84765625 4.08203125 13.84765625 4.08203125 13.59765625 6.20703125 C12.84765625 8.08203125 12.84765625 8.08203125 11.84765625 9.08203125 C9.55859545 9.20790032 7.26514507 9.25781096 4.97265625 9.26953125 C3.71710938 9.28371094 2.4615625 9.29789062 1.16796875 9.3125 C-2.15234375 9.08203125 -2.15234375 9.08203125 -5.15234375 7.08203125 C-5.46484375 4.58203125 -5.46484375 4.58203125 -5.15234375 2.08203125 C-3.15234375 0.08203125 -3.15234375 0.08203125 0 0 Z " fill="#F0F7CB" transform="translate(214.15234375,275.91796875)"/>
<path d="M0 0 C11.1138916 1.11138916 22.2277832 2.22277832 33.3416748 3.33416748 C34.64594421 3.46459442 34.64594421 3.46459442 35.9765625 3.59765625 C39.5703125 3.95703125 43.1640625 4.31640625 46.7578125 4.67578125 C47.6318573 4.76318573 48.5059021 4.85059021 49.40643311 4.94064331 C53.02597046 5.30259705 53.02597046 5.30259705 56.64550781 5.66455078 C57.75249023 5.77524902 58.85947266 5.88594727 60 6 C58.68 6.33 57.36 6.66 56 7 C56 7.66 56 8.32 56 9 C50.13273328 9.16832323 44.55465608 8.50483812 38.75 7.6875 C25.52568259 5.88878391 12.26851591 4.43000177 -1 3 C-0.67 2.01 -0.34 1.02 0 0 Z " fill="#2E616F" transform="translate(166,136)"/>
<path d="M0 0 C4.3172224 0.02810692 7.80092503 0.45276488 11.8125 2.1875 C12.4375 4.5625 12.4375 4.5625 12.8125 7.1875 C10.8125 9.1875 10.8125 9.1875 7.40625 9.234375 C6.04090519 9.1465458 4.67626896 9.04711134 3.3125 8.9375 C2.62285156 8.89753906 1.93320313 8.85757812 1.22265625 8.81640625 C-3.93024554 8.44475446 -3.93024554 8.44475446 -6.1875 6.1875 C-6.375 3.625 -6.375 3.625 -6.1875 1.1875 C-4.48413999 -0.51586001 -2.32303774 0.01567502 0 0 Z " fill="#F1F8CC" transform="translate(211.1875,286.8125)"/>
<path d="M0 0 C1.24910156 0.09796875 2.49820313 0.1959375 3.78515625 0.296875 C5.65494141 0.42835938 5.65494141 0.42835938 7.5625 0.5625 C10.84765625 1.046875 10.84765625 1.046875 13.84765625 3.046875 C12.97265625 7.921875 12.97265625 7.921875 11.84765625 9.046875 C5.81698682 9.54365428 0.54611326 9.028947 -5.15234375 7.046875 C-5.27734375 4.671875 -5.27734375 4.671875 -5.15234375 2.046875 C-3.15234375 0.046875 -3.15234375 0.046875 0 0 Z " fill="#F2F9CC" transform="translate(215.15234375,242.953125)"/>
<path d="M0 0 C4.50780187 0.03238363 8.13192149 0.71164661 12.375 2.1875 C12.375 4.1675 12.375 6.1475 12.375 8.1875 C9.35449889 9.69775056 6.71476484 9.10426664 3.375 8.875 C1.4878125 8.75705078 1.4878125 8.75705078 -0.4375 8.63671875 C-3.625 8.1875 -3.625 8.1875 -5.625 6.1875 C-5.8125 3.625 -5.8125 3.625 -5.625 1.1875 C-4.00478735 -0.43271265 -2.23132066 0.01685288 0 0 Z " fill="#F4FACD" transform="translate(139.625,234.8125)"/>
<path d="M0 0 C10.61141148 0.53332917 21.06042549 1.85482126 31.58203125 3.28125 C36.38125976 3.93014053 41.18460502 4.48530208 46 5 C46.495 6.485 46.495 6.485 47 8 C35.95922082 7.39086058 25.03578161 6.27610638 14.0625 4.9375 C12.49288162 4.74898992 10.92322029 4.56083713 9.35351562 4.37304688 C5.568505 3.91946184 1.78410021 3.46111611 -2 3 C-1.34 2.01 -0.68 1.02 0 0 Z " fill="#396A75" transform="translate(130,209)"/>
<path d="M0 0 C13.35389757 1.16954721 26.68413819 2.45470246 40 4 C38.8828125 5.5078125 38.8828125 5.5078125 37 7 C34.3046875 7.1796875 34.3046875 7.1796875 30.875 6.875 C29.56144531 6.76027344 28.24789062 6.64554688 26.89453125 6.52734375 C16.91463267 5.48524031 6.95487674 4.25602777 -3 3 C-2.01 2.67 -1.02 2.34 0 2 C0 1.34 0 0.68 0 0 Z " fill="#3D6D77" transform="translate(203,195)"/>
<path d="M0 0 C0.97935632 2.93806897 1 4.95277638 1 8 C3.20272284 10.20272284 8.44249493 9.83125526 11.54101562 10.16210938 C16.78671875 10.78671875 16.78671875 10.78671875 19 13 C8.86729571 13.35762486 -0.96788765 12.24844065 -11 11 C-7.78533388 5.86506871 -4.9904255 3.26297052 0 0 Z " fill="#2B5F6E" transform="translate(149,125)"/>
<path d="M0 0 C1.12728516 0.14405273 1.12728516 0.14405273 2.27734375 0.29101562 C3.78808563 0.48406926 5.29820022 0.68210091 6.80761719 0.88525391 C10.57394109 1.37647904 14.3489665 1.77836715 18.125 2.1875 C17.795 3.1775 17.465 4.1675 17.125 5.1875 C6.07222405 4.56802288 -4.88274498 3.48440981 -15.875 2.1875 C-15.875 1.8575 -15.875 1.5275 -15.875 1.1875 C-10.19055168 -0.8405061 -5.93116934 -0.8408364 0 0 Z " fill="#386974" transform="translate(159.875,178.8125)"/>
<path d="M0 0 C-0.66 0.33 -1.32 0.66 -2 1 C-2 1.66 -2 2.32 -2 3 C-17.345 1.515 -17.345 1.515 -33 0 C-33 -0.33 -33 -0.66 -33 -1 C-22.07676091 -3.46018898 -10.92900261 -1.55336078 0 0 Z " fill="#366873" transform="translate(240,221)"/>
<path d="M0 0 C7.92 0.66 15.84 1.32 24 2 C24 2.33 24 2.66 24 3 C22.35 3.33 20.7 3.66 19 4 C19 4.33 19 4.66 19 5 C16.64558284 4.85758352 14.29152516 4.71115192 11.9375 4.5625 C10.62652344 4.48128906 9.31554687 4.40007812 7.96484375 4.31640625 C4.26336762 4.02101751 0.66629552 3.56734612 -3 3 C-2.01 2.67 -1.02 2.34 0 2 C0 1.34 0 0.68 0 0 Z " fill="#46747B" transform="translate(221,153)"/>
<path d="M0 0 C5.61 0.33 11.22 0.66 17 1 C17.33 1.99 17.66 2.98 18 4 C15.56212615 3.8590651 13.12482147 3.71245458 10.6875 3.5625 C9.65206055 3.50352539 9.65206055 3.50352539 8.59570312 3.44335938 C5.52838465 3.25072585 2.93031848 2.97677283 0 2 C0 1.34 0 0.68 0 0 Z " fill="#386974" transform="translate(159,213)"/>
<path d="M0 0 C12.66970387 -0.3690205 12.66970387 -0.3690205 18 2 C18 2.33 18 2.66 18 3 C15.56242587 3.02698422 13.12515085 3.04683099 10.6875 3.0625 C9.99720703 3.07087891 9.30691406 3.07925781 8.59570312 3.08789062 C5.4516975 3.10307906 3.00579981 3.00193327 0 2 C0 1.34 0 0.68 0 0 Z " fill="#336572" transform="translate(158,202)"/>
<path d="M0 0 C5.75098214 -0.10414253 11.35450392 -0.20116938 17 1 C17.33 1.66 17.66 2.32 18 3 C15.56242587 3.02698422 13.12515085 3.04683099 10.6875 3.0625 C9.99720703 3.07087891 9.30691406 3.07925781 8.59570312 3.08789062 C5.4516975 3.10307906 3.00579981 3.00193327 0 2 C0 1.34 0 0.68 0 0 Z " fill="#2F6270" transform="translate(177,182)"/>
<path d="M0 0 C2.06242617 -0.02717692 4.12495703 -0.0464758 6.1875 -0.0625 C7.33605469 -0.07410156 8.48460937 -0.08570313 9.66796875 -0.09765625 C12.59300586 -0.01192832 15.16316291 0.32150977 18 1 C18 1.66 18 2.32 18 3 C5.33029613 3.3690205 5.33029613 3.3690205 0 1 C0 0.67 0 0.34 0 0 Z " fill="#2E6170" transform="translate(203,152)"/>
<path d="M0 0 C0 0.33 0 0.66 0 1 C-1.65 1 -3.3 1 -5 1 C-5 1.66 -5 2.32 -5 3 C-9.95 2.67 -14.9 2.34 -20 2 C-20 1.67 -20 1.34 -20 1 C-13.27777713 -1.657623 -7.07844318 -0.78767638 0 0 Z " fill="#537E81" transform="translate(164,179)"/>
<path d="M0 0 C6.93 0.495 6.93 0.495 14 1 C13.01 1.33 12.02 1.66 11 2 C11 2.66 11 3.32 11 4 C6.71 3.67 2.42 3.34 -2 3 C-1.34 2.01 -0.68 1.02 0 0 Z " fill="#507B7F" transform="translate(130,209)"/>
<path d="M0 0 C3.63 0.33 7.26 0.66 11 1 C10.67 1.99 10.34 2.98 10 4 C5.05 3.67 0.1 3.34 -5 3 C-5 2.67 -5 2.34 -5 2 C-3.35 1.67 -1.7 1.34 0 1 C0 0.67 0 0.34 0 0 Z " fill="#46747B" transform="translate(175,203)"/>
<path d="M0 0 C4.29 0.33 8.58 0.66 13 1 C10 4 10 4 6.86328125 4.07421875 C5.10564453 3.88279297 5.10564453 3.88279297 3.3125 3.6875 C2.13300781 3.56761719 0.95351562 3.44773438 -0.26171875 3.32421875 C-1.16535156 3.21722656 -2.06898438 3.11023438 -3 3 C-2.01 2.67 -1.02 2.34 0 2 C0 1.34 0 0.68 0 0 Z " fill="#46747B" transform="translate(203,195)"/>
<path d="M0 0 C3.63 0.33 7.26 0.66 11 1 C10.67 1.99 10.34 2.98 10 4 C5.05 3.67 0.1 3.34 -5 3 C-5 2.67 -5 2.34 -5 2 C-3.35 1.67 -1.7 1.34 0 1 C0 0.67 0 0.34 0 0 Z " fill="#47747B" transform="translate(195,172)"/>
<path d="M0 0 C1.17949219 0.11988281 2.35898438 0.23976562 3.57421875 0.36328125 C4.92966797 0.52376953 4.92966797 0.52376953 6.3125 0.6875 C5.23046875 2.20703125 5.23046875 2.20703125 3.3125 3.6875 C0.17578125 3.76171875 0.17578125 3.76171875 -3.375 3.375 C-4.55449219 3.25511719 -5.73398438 3.13523438 -6.94921875 3.01171875 C-7.85285156 2.90472656 -8.75648438 2.79773438 -9.6875 2.6875 C-6.96946898 -1.1295183 -4.38225337 -0.47727512 0 0 Z " fill="#46747B" transform="translate(165.6875,168.3125)"/>
<path d="M0 0 C3.63 0.33 7.26 0.66 11 1 C10.01 1.495 10.01 1.495 9 2 C9 2.66 9 3.32 9 4 C2.07 3.505 2.07 3.505 -5 3 C-5 2.67 -5 2.34 -5 2 C-3.35 2 -1.7 2 0 2 C0 1.34 0 0.68 0 0 Z " fill="#3D6D77" transform="translate(140,144)"/>
<path d="M0 0 C4.95 0 9.9 0 15 0 C13.68 0.33 12.36 0.66 11 1 C11 1.66 11 2.32 11 3 C3.57142857 3.28571429 3.57142857 3.28571429 0 1 C0 0.67 0 0.34 0 0 Z " fill="#4A777D" transform="translate(211,142)"/>
<path d="M0 0 C1.26457031 0.12761719 2.52914062 0.25523437 3.83203125 0.38671875 C5.74048828 0.56654297 5.74048828 0.56654297 7.6875 0.75 C8.66332031 0.85699219 9.63914063 0.96398437 10.64453125 1.07421875 C9.32453125 1.40421875 8.00453125 1.73421875 6.64453125 2.07421875 C6.64453125 2.73421875 6.64453125 3.39421875 6.64453125 4.07421875 C2.35453125 3.74421875 -1.93546875 3.41421875 -6.35546875 3.07421875 C-3.35546875 0.07421875 -3.35546875 0.07421875 0 0 Z " fill="#3D6D77" transform="translate(142.35546875,187.92578125)"/>
<path d="M0 0 C3.96 0.33 7.92 0.66 12 1 C10.68 1.33 9.36 1.66 8 2 C8 2.66 8 3.32 8 4 C4.04 3.67 0.08 3.34 -4 3 C-2.68 2.67 -1.36 2.34 0 2 C0 1.34 0 0.68 0 0 Z " fill="#44737A" transform="translate(232,187)"/>
<path d="M0 0 C3.63 0.33 7.26 0.66 11 1 C10.01 1.495 10.01 1.495 9 2 C9 2.66 9 3.32 9 4 C4.71 3.67 0.42 3.34 -4 3 C-2.68 2.67 -1.36 2.34 0 2 C0 1.34 0 0.68 0 0 Z " fill="#427179" transform="translate(229,220)"/>
<path d="M0 0 C3.63 0.33 7.26 0.66 11 1 C10.67 1.99 10.34 2.98 10 4 C5.05 3.67 0.1 3.34 -5 3 C-5 2.67 -5 2.34 -5 2 C-3.35 1.67 -1.7 1.34 0 1 C0 0.67 0 0.34 0 0 Z " fill="#3C6C76" transform="translate(194,183)"/>
<path d="M0 0 C3.63 0.33 7.26 0.66 11 1 C10.67 1.99 10.34 2.98 10 4 C5.05 3.67 0.1 3.34 -5 3 C-5 2.67 -5 2.34 -5 2 C-3.35 1.67 -1.7 1.34 0 1 C0 0.67 0 0.34 0 0 Z " fill="#3C6C76" transform="translate(222,175)"/>
<path d="M0 0 C1.07765625 0.01804688 2.1553125 0.03609375 3.265625 0.0546875 C4.49539062 0.08949219 4.49539062 0.08949219 5.75 0.125 C4.66796875 1.64453125 4.66796875 1.64453125 2.75 3.125 C-0.38671875 3.19921875 -0.38671875 3.19921875 -3.9375 2.8125 C-5.11699219 2.69261719 -6.29648438 2.57273438 -7.51171875 2.44921875 C-8.41535156 2.34222656 -9.31898438 2.23523438 -10.25 2.125 C-6.7733662 -0.01836161 -4.03770805 -0.08777626 0 0 Z " fill="#3B6B76" transform="translate(183.25,192.875)"/>
<path d="M0 0 C6.93 0.495 6.93 0.495 14 1 C9.65352612 4.25985541 9.2519968 4.34252339 4.25 3.6875 C3.26515625 3.56761719 2.2803125 3.44773438 1.265625 3.32421875 C0.51796875 3.21722656 -0.2296875 3.11023438 -1 3 C-0.67 2.01 -0.34 1.02 0 0 Z " fill="#45737A" transform="translate(166,136)"/>
<path d="M0 0 C0.66 0.99 1.32 1.98 2 3 C-2.95 2.67 -7.9 2.34 -13 2 C-13 1.67 -13 1.34 -13 1 C-8.60989926 0.14339498 -4.47255334 -0.34404256 0 0 Z " fill="#48757C" transform="translate(240,166)"/>
<path d="M0 0 C3.63 0 7.26 0 11 0 C9.68 0.33 8.36 0.66 7 1 C7 1.66 7 2.32 7 3 C4.69 2.67 2.38 2.34 0 2 C0 1.34 0 0.68 0 0 Z " fill="#46747B" transform="translate(214,285)"/>
</svg>
